<mxfile host="65bd71144e">
    <diagram id="X6kXw2UD3VecBWarCbBv" name="Page-1">
        <mxGraphModel dx="782" dy="969" grid="1" gridSize="10" guides="1" tooltips="1" connect="1" arrows="1" fold="1" page="1" pageScale="1" pageWidth="850" pageHeight="1100" math="0" shadow="0">
            <root>
                <mxCell id="0"/>
                <mxCell id="1" parent="0"/>
                <mxCell id="17" value="Host" style="whiteSpace=wrap;strokeWidth=2;fillColor=#f5f5f5;strokeColor=#666666;fontFamily=Verdana;fontStyle=1;fontSize=19;fontColor=#333333;verticalAlign=top;" vertex="1" parent="1">
                    <mxGeometry x="220" y="190" width="200" height="210" as="geometry"/>
                </mxCell>
                <mxCell id="5" value="Guest" style="whiteSpace=wrap;strokeWidth=2;fillColor=#f5f5f5;strokeColor=#666666;fontFamily=Verdana;fontStyle=1;fontSize=19;fontColor=#333333;verticalAlign=top;" vertex="1" parent="1">
                    <mxGeometry x="550" y="190" width="200" height="210" as="geometry"/>
                </mxCell>
                <mxCell id="2" value="Guest process" style="whiteSpace=wrap;strokeWidth=2;fillColor=#ffcccc;strokeColor=#36393d;fontFamily=Verdana;fontStyle=1;fontSize=17;" vertex="1" parent="1">
                    <mxGeometry x="565" y="240" width="170" height="80" as="geometry"/>
                </mxCell>
                <mxCell id="7" value="CPU" style="whiteSpace=wrap;strokeWidth=2;fillColor=#e1d5e7;strokeColor=#9673a6;fontFamily=Verdana;fontStyle=1;fontSize=19;" vertex="1" parent="1">
                    <mxGeometry x="220" y="450" width="530" height="50" as="geometry"/>
                </mxCell>
                <mxCell id="8" value="Guest kernel" style="whiteSpace=wrap;strokeWidth=2;fillColor=#ffe6cc;strokeColor=#d79b00;fontFamily=Verdana;fontStyle=1;fontSize=17;" vertex="1" parent="1">
                    <mxGeometry x="565" y="335" width="170" height="55" as="geometry"/>
                </mxCell>
                <mxCell id="10" value="Host kernel" style="whiteSpace=wrap;strokeWidth=2;fillColor=#fff2cc;strokeColor=#d6b656;fontFamily=Verdana;fontStyle=1;fontSize=19;verticalAlign=middle;" vertex="1" parent="1">
                    <mxGeometry x="225" y="335" width="190" height="55" as="geometry"/>
                </mxCell>
                <mxCell id="16" value="Host process&#10;(VMM)" style="whiteSpace=wrap;strokeWidth=2;fillColor=#ffcccc;strokeColor=#36393d;fontFamily=Verdana;fontStyle=1;fontSize=17;" vertex="1" parent="1">
                    <mxGeometry x="225" y="240" width="190" height="50" as="geometry"/>
                </mxCell>
                <mxCell id="18" value="" style="edgeStyle=orthogonalEdgeStyle;rounded=0;orthogonalLoop=1;jettySize=auto;html=1;strokeWidth=4;endArrow=block;endFill=1;" edge="1" parent="1">
                    <mxGeometry relative="1" as="geometry">
                        <mxPoint x="424.9999999999998" y="350" as="sourcePoint"/>
                        <mxPoint x="540" y="350" as="targetPoint"/>
                    </mxGeometry>
                </mxCell>
                <mxCell id="19" value="&lt;font face=&quot;Verdana&quot; style=&quot;font-size: 16px;&quot;&gt;&lt;b style=&quot;font-size: 16px;&quot;&gt;VM enter&lt;/b&gt;&lt;/font&gt;&lt;div style=&quot;font-size: 16px;&quot;&gt;&lt;/div&gt;" style="text;whiteSpace=wrap;html=1;fontSize=16;verticalAlign=middle;align=center;" vertex="1" parent="1">
                    <mxGeometry x="425" y="310" width="110" height="40" as="geometry"/>
                </mxCell>
                <mxCell id="21" value="&lt;font face=&quot;Verdana&quot; style=&quot;font-size: 16px;&quot;&gt;&lt;b style=&quot;font-size: 16px;&quot;&gt;VM exit&lt;/b&gt;&lt;/font&gt;&lt;div style=&quot;font-size: 16px;&quot;&gt;&lt;/div&gt;" style="text;whiteSpace=wrap;html=1;fontSize=16;verticalAlign=middle;align=center;" vertex="1" parent="1">
                    <mxGeometry x="211" y="404" width="110" height="40" as="geometry"/>
                </mxCell>
                <mxCell id="22" value="" style="edgeStyle=orthogonalEdgeStyle;rounded=0;orthogonalLoop=1;jettySize=auto;html=1;strokeWidth=4;endArrow=block;endFill=1;" edge="1" parent="1">
                    <mxGeometry relative="1" as="geometry">
                        <mxPoint x="319.5" y="440" as="sourcePoint"/>
                        <mxPoint x="319.5" y="410" as="targetPoint"/>
                    </mxGeometry>
                </mxCell>
                <mxCell id="23" value="&lt;font face=&quot;Verdana&quot;&gt;&lt;b&gt;page faults,&lt;br&gt;sensitive instruction&lt;br&gt;&lt;/b&gt;&lt;/font&gt;" style="text;whiteSpace=wrap;html=1;fontSize=16;verticalAlign=middle;align=right;" vertex="1" parent="1">
                    <mxGeometry x="500" y="404" width="190" height="40" as="geometry"/>
                </mxCell>
                <mxCell id="24" value="" style="edgeStyle=orthogonalEdgeStyle;rounded=0;orthogonalLoop=1;jettySize=auto;html=1;strokeWidth=4;endArrow=none;endFill=0;startArrow=block;startFill=1;" edge="1" parent="1">
                    <mxGeometry relative="1" as="geometry">
                        <mxPoint x="710" y="439" as="sourcePoint"/>
                        <mxPoint x="710" y="409" as="targetPoint"/>
                    </mxGeometry>
                </mxCell>
                <mxCell id="28" value="&lt;font face=&quot;Verdana&quot; style=&quot;font-size: 16px;&quot;&gt;&lt;b style=&quot;font-size: 16px;&quot;&gt;exit info&lt;/b&gt;&lt;/font&gt;&lt;div style=&quot;font-size: 16px;&quot;&gt;&lt;/div&gt;" style="text;whiteSpace=wrap;html=1;fontSize=16;verticalAlign=middle;align=center;" vertex="1" parent="1">
                    <mxGeometry x="205" y="301" width="110" height="40" as="geometry"/>
                </mxCell>
                <mxCell id="29" value="" style="edgeStyle=orthogonalEdgeStyle;rounded=0;orthogonalLoop=1;jettySize=auto;html=1;strokeWidth=4;endArrow=block;endFill=1;" edge="1" parent="1">
                    <mxGeometry relative="1" as="geometry">
                        <mxPoint x="305.5" y="331" as="sourcePoint"/>
                        <mxPoint x="305.5" y="301" as="targetPoint"/>
                    </mxGeometry>
                </mxCell>
                <mxCell id="32" value="&lt;div style=&quot;&quot;&gt;&lt;b style=&quot;font-family: Verdana; background-color: initial;&quot;&gt;resume&lt;/b&gt;&lt;/div&gt;&lt;div style=&quot;font-size: 16px;&quot;&gt;&lt;/div&gt;" style="text;whiteSpace=wrap;html=1;fontSize=16;verticalAlign=middle;align=left;" vertex="1" parent="1">
                    <mxGeometry x="345" y="287" width="75" height="40" as="geometry"/>
                </mxCell>
                <mxCell id="33" value="" style="edgeStyle=orthogonalEdgeStyle;rounded=0;orthogonalLoop=1;jettySize=auto;html=1;strokeWidth=4;endArrow=none;endFill=0;startArrow=block;startFill=1;" edge="1" parent="1">
                    <mxGeometry relative="1" as="geometry">
                        <mxPoint x="338" y="331" as="sourcePoint"/>
                        <mxPoint x="338" y="301" as="targetPoint"/>
                    </mxGeometry>
                </mxCell>
            </root>
        </mxGraphModel>
    </diagram>
</mxfile>